#!OML:ASF F:\VICON\USERDATA\INSTALL\rory3\rory3.ASF
:FULLY-SPECIFIED
:DEGREES
102
root 1.004156301214196 18.203151364044228 15.9471521218201 -2.702095204599684 -5.33992670297988 0.7237577991263051
lfemur -4.918108017833503 -2.9503347506573347 -25.44044561546882
ltibia 28.92011954140083
lfoot -7.442718437595321 -4.278987730314199
ltoes -15.309166302432867
rfemur -21.434972795033783 3.893757236586995 20.949873825834256
rtibia 64.85585973166404
rfoot -7.353083608880187 -9.131247068190065
rtoes 7.3469093199307025
lowerback 10.730115107811915 1.0223887219995944 0.0263541464869671
upperback 1.020845725807743 1.3175453710134954 0.8187931044288382
thorax -5.571591478928153 0.6318359776678386 0.7157138876145661
lowerneck -15.070964248731432 -2.588920319034698 -2.2642394016447875
upperneck 22.700637200314677 -2.9911261468878125 0.2229070842211562
head 9.798411463862468 -1.5577734873789157 -0.2711961955278459
lclavicle -1.3925871716295848e-15 -1.8483827785352066e-15
lhumerus -31.55043720268317 3.068097658299574 80.93973052780099
lradius 31.895765878544502
lwrist 6.788092508958483
lhand -26.45981149868405 23.921342492352803
lfingers 7.125019999999999
lthumb -0.6328364820116192 53.09250940022859
rclavicle -1.3882056711992695e-15 -1.845049821668354e-15
rhumerus -29.189468581619252 -19.702973265539416 -78.18361960356707
rradius 25.987269901002183
rwrist 1.9102494224452329
rhand -17.917056357590035 21.702528670718614
rfingers 7.125019999999999
rthumb 8.411188307860261 -8.094732710186317
103
root 0.9428048111615058 18.216008393518937 16.902296429138453 -2.404675313749753 -4.2500031323186205 0.6209621468026718
lfemur -3.546205285553329 -2.5676192733883383 -25.456374810877413
ltibia 29.03517311969574
lfoot -7.750601316566833 -4.204733955134369
ltoes -15.31676219121203
rfemur -23.690340244923064 3.507019507898881 20.45051452758939
rtibia 59.19705373077635
rfoot -7.16560795743555 -10.261386591707453
rtoes 7.323653659255124
lowerback 10.48443100874653 0.4581873082249498 -0.531078284076721
upperback 1.0209715307775464 0.6315156743033146 0.9676717247895831
thorax -5.523191491985547 0.3152797166177367 1.2469698294800025
lowerneck -15.169000721218358 -2.5581329216989035 -2.410642164740171
upperneck 22.869715264360202 -2.8896048408246986 0.24301288000219431
head 9.884578946400245 -1.5223563102288107 -0.2249912477274321
lclavicle -1.3924330916459199e-15 -1.8482189167642264e-15
lhumerus -30.94800720191657 3.2215422709383437 80.99431836905465
lradius 31.56027760819961
lwrist 7.210482526136914
lhand -26.547070963080472 23.822001705173086
lfingers 7.125019999999999
lthumb -0.7912010022985145 52.89829664683919
rclavicle -1.388315608585071e-15 -1.8449880807840642e-15
rhumerus -29.45819748529266 -19.694691808896618 -78.06474775195247
rradius 25.563002415315704
rwrist 1.9700389310885305
rhand -17.76478711513755 21.772566871263507
rfingers 7.125019999999999
rthumb 8.557313795762983 -7.980284776302468
104
root 0.9601289580539003 18.225106699469883 17.114603305127773 -2.5619190791907407 -3.420635997316576 0.5601772849965507
lfemur -2.255204756720384 -2.0597346020594127 -25.3045478479697
ltibia 29.17618881051702
lfoot -6.957202373713406 -4.7209925372644275
ltoes -15.149310731203359
rfemur -25.357574432935444 3.9416415367205992 19.818984883215343
rtibia 51.678630546720555
rfoot -6.501378031135603 -11.70532801795244
rtoes 6.871426106303684
lowerback 10.586625872922726 0.04693345562903081 -1.0950572674714416
upperback 0.9245179206168938 0.05607458783320696 1.1016171620705464
thorax -5.477733301908254 0.042415723815814904 1.7406867248651667
lowerneck -15.274594990157377 -2.5633396610960397 -2.5791671260660247
upperneck 22.996385420096413 -2.8658591676382033 0.3528012065606168
head 9.955083144767276 -1.5131494272873574 -0.14644841268505238
lclavicle -1.3918762289251393e-15 -1.84768708011807e-15
lhumerus -30.516758969668462 3.2938220566690544 81.0379656400691
lradius 31.232581422415794
lwrist 7.62350262299273
lhand -26.71530400376473 23.64911170087389
lfingers 7.125019999999999
lthumb -0.9982079496472995 52.683003865013596
rclavicle -1.3882296164064092e-15 -1.844805811086617e-15
rhumerus -29.8521993583954 -19.761128401101892 -77.82473776568952
rradius 25.165139066221602
rwrist 2.1529009493188624
rhand -17.631258154724247 21.960276467872248
rfingers 7.125019999999999
rthumb 8.674968352828998 -7.721851139241326
105
root 0.8384171572115524 18.005286403349025 17.139730223065495 -2.1186689010494666 -2.495412678887738 0.6652755600649534
lfemur -0.8327976476839396 -1.1874340309785252 -25.06093348624104
ltibia 29.424787013648487
lfoot -7.471660759712919 -4.609978500095888
ltoes -15.802048516088352
rfemur -26.38983814034401 4.51039081750705 19.258412770074955
rtibia 42.80160124775642
rfoot -5.4762242428528936 -13.059224502674732
rtoes 6.111639834976136
lowerback 10.96199623453734 -0.23036391440585763 -1.9062262430436356
upperback 0.8490742118031983 -0.40901799776068903 1.1528663930798797
thorax -5.392134932547164 -0.1875422118854429 2.175203800244298
lowerneck -15.371656947303011 -2.5942312409752537 -2.743918932955334
upperneck 23.03821584498762 -2.9053891662429954 0.5474339998612086
head 9.991518269065937 -1.523501845405738 -0.0383490985893416
lclavicle -1.3917735959379072e-15 -1.847592407492806e-15
lhumerus -30.561819443808233 2.860187922110728 81.00406174608229
lradius 31.261649862801406
lwrist 7.853398904937459
lhand -26.87682445773295 23.53660028460999
lfingers 7.125019999999999
lthumb -1.1599914361343218 52.599189835245916
rclavicle -1.387094418256938e-15 -1.8436529069087477e-15
rhumerus -30.423874761371724 -20.061832848826107 -77.46735192701838
rradius 24.815907548422555
rwrist 2.4822344828270437
rhand -17.511571086032017 22.177578192626367
rfingers 7.125019999999999
rthumb 8.780595279407672 -7.419967315431064
